<svg width="52" height="52" viewBox="0 0 52 52" fill="none" xmlns="http://www.w3.org/2000/svg">
<rect width="52" height="52" rx="26" fill="white"/>
<path d="M27 37C27 40.866 23.866 44 20 44C16.134 44 13 40.866 13 37C13 33.134 16.134 30 20 30C23.866 30 27 33.134 27 37Z" fill="#FFD9DA" fill-opacity="0.8"/>
<path d="M26.5 37C26.5 40.5899 23.5899 43.5 20 43.5C16.4101 43.5 13.5 40.5899 13.5 37C13.5 33.4101 16.4101 30.5 20 30.5C23.5899 30.5 26.5 33.4101 26.5 37Z" stroke="#FFD9DA" stroke-opacity="0.8"/>
<path d="M14 20.5C14 22.433 12.433 24 10.5 24C8.567 24 7 22.433 7 20.5C7 18.567 8.567 17 10.5 17C12.433 17 14 18.567 14 20.5Z" fill="#FFD9DA" fill-opacity="0.8"/>
<path d="M13.5 20.5C13.5 22.1569 12.1569 23.5 10.5 23.5C8.84315 23.5 7.5 22.1569 7.5 20.5C7.5 18.8431 8.84315 17.5 10.5 17.5C12.1569 17.5 13.5 18.8431 13.5 20.5Z" stroke="#FFD9DA" stroke-opacity="0.8"/>
<circle cx="31" cy="24" r="16" fill="#FFC6C7" fill-opacity="0.8"/>
<circle cx="31" cy="24" r="15.5" stroke="#FFC6C7" stroke-opacity="0.8"/>
</svg>
