<?xml version="1.0" standalone="no"?>
<!DOCTYPE svg PUBLIC "-//W3C//DTD SVG 20010904//EN"
 "http://www.w3.org/TR/2001/REC-SVG-20010904/DTD/svg10.dtd">
<svg version="1.0" xmlns="http://www.w3.org/2000/svg"
 width="104.000000pt" height="104.000000pt" viewBox="0 0 104.000000 104.000000"
 preserveAspectRatio="xMidYMid meet">
<metadata>
Created by potrace 1.14, written by Peter Selinger 2001-2017
</metadata>
<g transform="translate(0.000000,104.000000) scale(0.100000,-0.100000)"
fill="#000000" stroke="none">
<path d="M528 867 c-96 -37 -169 -103 -207 -191 -22 -52 -25 -149 -7 -206 l17
-51 -25 -20 c-30 -23 -49 -86 -40 -126 11 -47 51 -91 93 -103 54 -14 97 -3
139 38 36 35 39 36 122 36 77 1 91 4 149 36 44 23 75 50 101 85 53 72 65 109
65 200 0 68 -5 88 -28 132 -57 110 -151 172 -271 179 -46 3 -84 0 -108 -9z
m-143 -526 c26 -27 64 -58 86 -69 l40 -20 -31 -31 c-73 -73 -193 -23 -193 79
0 35 27 90 44 90 4 0 29 -22 54 -49z"/>
<path d="M172 683 c-47 -40 -31 -104 29 -118 53 -13 97 61 62 103 -26 31 -65
37 -91 15z m79 -34 c12 -24 -3 -54 -30 -62 -50 -13 -76 64 -28 82 27 10 45 4
58 -20z"/>
</g>
</svg>
